HIERARCHY
ROOT Hips
{
	OFFSET 0.000000 0.000000 0.000000
	CHANNELS 6 Xposition Yposition Zposition Xrotation Yrotation Zrotation
	JOINT LeftUpLeg_virtual
	{
		OFFSET 0.000000 0.000000 0.000000
		CHANNELS 3 Xrotation Yrotation Zrotation
		JOINT LeftUpLeg
		{
			OFFSET 13.026900 -6.336304 -1.092800
			CHANNELS 3 Xrotation Yrotation Zrotation
			JOINT LeftLeg
			{
				OFFSET 0.524474 -46.096886 9.782700
				CHANNELS 3 Xrotation Yrotation Zrotation
				JOINT LeftFoot
				{
					OFFSET -0.524474 -53.427422 -12.948200
					CHANNELS 3 Xrotation Yrotation Zrotation
					JOINT LeftToeBase
					{
						OFFSET 0.192200 -14.009700 16.364100
						CHANNELS 3 Xrotation Yrotation Zrotation
						JOINT LeftToe_End
						{
							OFFSET -1.784700 -0.561700 9.474800
							CHANNELS 3 Xrotation Yrotation Zrotation
							End Site
							{
								OFFSET 0 0 0
							}
						}
					}
				}
			}
		}
	}
	JOINT RightUpLeg_virtual
	{
		OFFSET 0.000000 0.000000 0.000000
		CHANNELS 3 Xrotation Yrotation Zrotation
		JOINT RightUpLeg
		{
			OFFSET -12.883000 -6.336304 -1.092800
			CHANNELS 3 Xrotation Yrotation Zrotation
			JOINT RightLeg
			{
				OFFSET -0.524587 -46.096825 9.782800
				CHANNELS 3 Xrotation Yrotation Zrotation
				JOINT RightFoot
				{
					OFFSET 0.524587 -53.427383 -12.948300
					CHANNELS 3 Xrotation Yrotation Zrotation
					JOINT RightToeBase
					{
						OFFSET -0.192200 -14.009700 16.364100
						CHANNELS 3 Xrotation Yrotation Zrotation
						JOINT RightToe_End
						{
							OFFSET 1.784700 -0.561700 9.474800
							CHANNELS 3 Xrotation Yrotation Zrotation
							End Site
							{
								OFFSET 0 0 0
							}
						}
					}
				}
			}
		}
	}
	JOINT Spine_virtual
	{
		OFFSET 0.000000 0.000000 0.000000
		CHANNELS 3 Xrotation Yrotation Zrotation
		JOINT Spine
		{
			OFFSET 0.072000 7.257294 -0.789700
			CHANNELS 3 Xrotation Yrotation Zrotation
			JOINT Spine1
			{
				OFFSET 0.000000 12.508769 -0.658067
				CHANNELS 3 Xrotation Yrotation Zrotation
				JOINT Spine1_split
				{
					OFFSET 0.000000 12.508769 -0.658067
					CHANNELS 3 Xrotation Yrotation Zrotation
					JOINT Spine2
					{
						OFFSET 0.000000 12.508769 -0.658067
						CHANNELS 3 Xrotation Yrotation Zrotation
						JOINT Neck_virtual
						{
							OFFSET 0.000000 0.000000 0.000000
							CHANNELS 3 Xrotation Yrotation Zrotation
							JOINT Neck
							{
								OFFSET 0.000000 14.033295 7.520400
								CHANNELS 3 Xrotation Yrotation Zrotation
								JOINT Head
								{
									OFFSET 0.000000 8.198502 5.703100
									CHANNELS 3 Xrotation Yrotation Zrotation
									JOINT HeadTop_End
									{
										OFFSET 0.000000 17.760803 13.332701
										CHANNELS 3 Xrotation Yrotation Zrotation
										End Site
										{
											OFFSET 0 0 0
										}
									}
								}
							}
						}
						JOINT LeftShoulder_virtual
						{
							OFFSET 0.000000 0.000000 0.000000
							CHANNELS 3 Xrotation Yrotation Zrotation
							JOINT LeftShoulder
							{
								OFFSET 6.292450 5.785301 -0.669000
								CHANNELS 3 Xrotation Yrotation Zrotation
								JOINT LeftShoulder_split
								{
									OFFSET 6.292450 5.785301 -0.669000
									CHANNELS 3 Xrotation Yrotation Zrotation
									JOINT LeftArm
									{
										OFFSET 13.907140 -6.093903 1.965100
										CHANNELS 3 Xrotation Yrotation Zrotation
										JOINT LeftForeArm
										{
											OFFSET 34.140198 0.000000 0.000000
											CHANNELS 3 Xrotation Yrotation Zrotation
											JOINT LeftHand
											{
												OFFSET 40.960209 0.000000 0.000000
												CHANNELS 3 Xrotation Yrotation Zrotation
												End Site
												{
													OFFSET 0 0 0
												}
											}
										}
									}
								}
							}
						}
						JOINT RightShoulder_virtual
						{
							OFFSET 0.000000 0.000000 0.000000
							CHANNELS 3 Xrotation Yrotation Zrotation
							JOINT RightShoulder
							{
								OFFSET -6.292450 5.785301 -0.669000
								CHANNELS 3 Xrotation Yrotation Zrotation
								JOINT RightShoulder_split
								{
									OFFSET -6.292450 5.785301 -0.669000
									CHANNELS 3 Xrotation Yrotation Zrotation
									JOINT RightArm
									{
										OFFSET -13.907140 -6.093903 1.965100
										CHANNELS 3 Xrotation Yrotation Zrotation
										JOINT RightForeArm
										{
											OFFSET -34.140198 0.000000 0.000000
											CHANNELS 3 Xrotation Yrotation Zrotation
											JOINT RightHand
											{
												OFFSET -40.960209 0.000000 0.000000
												CHANNELS 3 Xrotation Yrotation Zrotation
												End Site
												{
													OFFSET 0 0 0
												}
											}
										}
									}
								}
							}
						}
					}
				}
			}
		}
	}
}
MOTION
Frames: 6
Frame Time: 0.03333333
-0.716283 110.583054 7.276955 0.000000 0.000000 0.000000 121.157898 -82.439919 117.432726 -8.939659 32.100646 21.788141 22.248957 8.444942 -2.920593 -17.000245 12.789452 -22.708545 1.557565 -4.385489 -2.841646 0.000000 0.000000 0.000000 123.031829 -82.515228 118.949151 -25.893372 -14.414882 -10.232954 24.534301 -12.146714 0.672530 -4.442384 -8.906006 24.754284 1.724908 1.741375 -5.744420 0.000000 0.000000 0.000000 85.588889 -84.301746 81.770506 8.131212 -1.127712 1.991409 0.587883 -0.306258 2.350297 0.163077 -0.464290 -0.009822 0.000000 0.000000 0.000000 2.400950 2.131009 2.685701 -11.015457 19.375396 18.061126 -2.807341 1.577075 3.088510 0.000000 0.000000 0.000000 1.805320 -0.162315 2.682202 -0.085032 1.153046 -5.234268 -0.364865 -5.333346 -1.602415 -12.945648 -0.360836 -63.363808 19.855216 -20.347699 -0.020849 0.000000 0.000000 0.000000 0.783163 -0.168943 3.372343 -0.541692 0.655741 21.512850 -15.384788 -6.556582 -0.923118 12.653748 30.244235 45.571760 8.622198 33.080116 -2.368653 0.000000 0.000000 0.000000 
-0.120885 109.955536 3.800644 0.000000 0.000000 0.000000 132.574341 -82.039151 129.271329 -7.177385 32.250808 22.451383 23.529276 9.675728 -2.912353 -15.449422 13.008608 -24.811666 -1.146992 -4.508809 -3.034449 0.000000 0.000000 0.000000 132.407124 -82.075924 128.648758 -27.542456 -12.639001 -8.928663 26.126206 -12.286188 0.412197 -3.451670 -8.699680 25.500045 1.338325 1.590498 -6.032700 0.000000 0.000000 0.000000 102.985012 -84.916388 99.919336 8.322307 -2.100259 1.805717 0.230186 -0.712687 2.658924 0.151688 -0.356509 -0.015679 0.000000 0.000000 0.000000 2.268518 1.818823 2.901235 -10.566253 18.986529 16.425562 -2.108471 3.177979 4.462922 0.000000 0.000000 0.000000 1.586623 -0.457920 2.945883 -0.102896 0.501961 -5.706836 -0.681438 -5.204297 -1.723482 -11.303961 -1.967323 -64.169156 18.326282 -19.335103 -0.594853 0.000000 0.000000 0.000000 0.602054 -0.479530 3.671849 -0.609287 0.666620 21.352121 -14.616161 -6.688786 -0.469142 10.897997 31.329162 46.201654 7.779390 32.382149 -2.560787 0.000000 0.000000 0.000000 
0.427263 109.165977 -0.212849 0.000000 0.000000 0.000000 140.971116 -82.005690 137.867928 -5.986580 30.756694 23.519458 25.576437 10.241717 -2.992051 -13.161952 12.429234 -26.511354 -6.029295 -4.447385 -3.537544 0.000000 0.000000 0.000000 139.673175 -81.946410 136.013737 -28.487425 -11.090458 -6.896661 27.650761 -11.941554 0.010372 -3.334277 -8.406235 25.616237 1.399274 1.462345 -6.557662 0.000000 0.000000 0.000000 119.734842 -85.201760 117.145886 8.622718 -3.079296 1.744774 -0.147267 -1.161985 2.935472 0.146010 -0.266501 -0.014965 0.000000 0.000000 0.000000 2.125034 1.482995 3.079651 -10.303444 18.833043 14.950487 -1.844372 5.583566 5.601503 0.000000 0.000000 0.000000 1.364767 -0.811578 3.147464 -0.146966 -0.219767 -5.738936 -0.597977 -5.252888 -1.732007 -9.422735 -3.555636 -64.959054 16.589932 -18.738465 -1.403014 0.000000 0.000000 0.000000 0.417793 -0.852039 3.892611 -0.594996 0.779866 21.063462 -13.677225 -6.677508 0.046901 9.148560 32.431910 46.857574 7.092527 31.546964 -2.650158 0.000000 0.000000 0.000000 
0.839114 108.319977 -4.769218 0.000000 0.000000 0.000000 148.328377 -82.276507 145.203798 -5.697401 27.828663 24.889184 28.157842 10.495053 -3.341016 -10.618625 11.179780 -27.233103 -12.337163 -4.123037 -4.450022 0.000000 0.000000 0.000000 145.783448 -82.252430 142.032158 -28.477789 -10.215897 -4.209486 28.985912 -11.485331 -0.545604 -5.016222 -8.459601 24.101461 3.060636 1.282498 -7.274964 0.000000 0.000000 0.000000 135.452951 -85.320271 133.164346 9.026953 -3.914550 1.846640 -0.532461 -1.565672 3.073369 0.109946 -0.262987 0.026257 0.000000 0.000000 0.000000 1.957237 1.188501 3.143367 -10.170107 18.912358 13.848806 -2.139751 8.409162 6.344876 0.000000 0.000000 0.000000 1.130090 -1.146289 3.184383 -0.220966 -0.986430 -5.341293 -0.098770 -5.061170 -1.751505 -7.670448 -4.327547 -65.733017 14.736379 -18.786770 -2.374409 0.000000 0.000000 0.000000 0.230936 -1.194889 3.947917 -0.542201 1.164729 20.762930 -12.603591 -6.325824 0.330298 7.446881 33.346192 47.566237 6.673199 30.749737 -2.679222 0.000000 0.000000 0.000000 
1.042546 107.573547 -9.319759 0.000000 0.000000 0.000000 155.611203 -82.837627 152.361740 -6.104491 23.509837 26.082611 31.772800 10.637697 -4.096886 -8.048984 9.553221 -26.984740 -18.771532 -3.433349 -5.616600 0.000000 0.000000 0.000000 152.104433 -82.797998 148.203781 -27.610857 -10.162763 -1.272416 30.628184 -11.066691 -1.080394 -8.160931 -8.706523 20.561086 6.237863 1.035047 -8.146654 0.000000 0.000000 0.000000 148.793936 -85.382467 146.581447 9.509460 -4.427309 2.111421 -0.905476 -1.857318 3.019195 0.075036 -0.351859 0.034117 0.000000 0.000000 0.000000 1.758732 1.001127 3.069681 -9.993784 19.146735 13.320001 -3.016860 11.313777 6.705231 0.000000 0.000000 0.000000 0.872653 -1.371885 3.013975 -0.321662 -1.854966 -4.774437 0.554031 -4.506940 -1.924063 -6.242137 -3.841825 -66.511057 13.114908 -19.515172 -3.372564 0.000000 0.000000 0.000000 0.042911 -1.419873 3.800751 -0.489181 1.944050 20.484314 -11.255429 -5.649578 0.359775 5.929166 34.061238 48.282320 6.606857 30.084381 -2.692667 0.000000 0.000000 0.000000 
0.925200 106.904800 -13.717831 0.000000 0.000000 0.000000 163.289565 -83.385053 159.872243 -6.640904 18.533121 26.585429 36.606081 11.377639 -5.331421 -6.266119 8.414674 -25.002952 -23.585623 -2.441687 -7.007822 0.000000 0.000000 0.000000 158.913941 -83.393755 154.928539 -26.371342 -10.789840 1.355310 32.753294 -10.436672 -1.538367 -11.340711 -8.597447 16.059341 9.311492 0.743252 -9.298796 0.000000 0.000000 0.000000 160.425257 -85.489762 158.169655 10.055503 -4.533244 2.519290 -1.248613 -2.006046 2.773611 0.053182 -0.501340 0.047196 0.000000 0.000000 0.000000 1.534636 0.958924 2.859260 -9.698055 19.415195 13.499810 -4.314261 13.804566 6.562912 0.000000 0.000000 0.000000 0.593646 -1.440622 2.617440 -0.445590 -2.924250 -4.395340 1.090692 -3.697238 -2.332937 -5.161879 -2.117304 -67.263908 12.065368 -20.563131 -4.243667 0.000000 0.000000 0.000000 -0.133489 -1.461125 3.477477 -0.454246 3.160878 20.283162 -9.880485 -4.993613 0.066216 4.882451 34.689667 48.765918 6.873039 29.573497 -2.693484 0.000000 0.000000 0.000000 
